<mxfile host="app.diagrams.net" modified="2023-04-13T12:19:14.593Z" agent="Mozilla/5.0 (Windows NT 10.0; Win64; x64) AppleWebKit/537.36 (KHTML, like Gecko) Chrome/111.0.0.0 Safari/537.36" version="21.1.7" etag="14cbV8SbUWPcXUfxVSWc" type="github">
  <diagram name="Page-1" id="u-1pLyN-kBVfXBn1N83B">
    <mxGraphModel>
      <root>
        <mxCell id="0" />
        <mxCell id="1" parent="0" />
      </root>
    </mxGraphModel>
  </diagram>
</mxfile>
